<svg width="22" height="22" viewBox="0 0 22 22" fill="none" xmlns="http://www.w3.org/2000/svg">
<path fill-rule="evenodd" clip-rule="evenodd" d="M18.1877 0.720099C17.223 -0.240546 15.6596 -0.239958 14.6956 0.721415L7.2402 8.15834C6.64391 8.75305 6.29334 9.54915 6.25786 10.3891L6.15173 12.9018C6.1034 14.046 7.02107 14.9998 8.17016 14.9999L10.6423 15C11.5499 15 12.4191 14.6349 13.0528 13.9874L20.4483 6.40804C21.3924 5.44344 21.3825 3.90152 20.426 2.94907L18.1877 0.720099ZM15.6484 1.67018C16.0865 1.23319 16.7972 1.23293 17.2357 1.66958L19.474 3.89856C19.9087 4.33149 19.9133 5.03236 19.4841 5.47082L17.9988 6.98837L14.1545 3.16008L15.6484 1.67018ZM13.2025 4.10956L8.19294 9.10711C7.83517 9.46393 7.62482 9.9416 7.60354 10.4456L7.4974 12.9583C7.48129 13.3397 7.78718 13.6576 8.17021 13.6576L10.6423 13.6577C11.1869 13.6578 11.7084 13.4387 12.0887 13.0502L17.0583 7.94931L13.2025 4.10956Z" fill="#888888"/>
<path d="M19.1499 11V15C19.1499 17.7614 16.9113 20 14.1499 20H6.1499C3.38848 20 1.1499 17.7614 1.1499 15V7C1.1499 4.23858 3.38848 2 6.1499 2H10.1499" stroke="#888888" stroke-width="2.3" stroke-linecap="round"/>
</svg>
