<svg width="22" height="22" viewBox="0 0 22 22" fill="none" xmlns="http://www.w3.org/2000/svg">
<path d="M1.1499 9.49212C1.1499 8.26793 1.71048 7.11115 2.67133 6.35259L8.17133 2.01048C9.62456 0.863189 11.6752 0.86319 13.1285 2.01048L18.6285 6.35259C19.5893 7.11115 20.1499 8.26793 20.1499 9.49212V16.0537C20.1499 18.2628 18.359 20.0537 16.1499 20.0537H14.6499C14.0976 20.0537 13.6499 19.606 13.6499 19.0537V16.0537C13.6499 14.9491 12.7545 14.0537 11.6499 14.0537H9.6499C8.54533 14.0537 7.6499 14.9491 7.6499 16.0537V19.0537C7.6499 19.606 7.20219 20.0537 6.6499 20.0537H5.1499C2.94076 20.0537 1.1499 18.2628 1.1499 16.0537L1.1499 9.49212Z" stroke="#888888" stroke-width="2.3"/>
</svg>
