<svg width="20" height="19" viewBox="0 0 20 19" fill="none" xmlns="http://www.w3.org/2000/svg">
<path d="M8.62076 1.73129C9.08715 0.95631 10.2107 0.956309 10.6771 1.73129L12.6784 5.05674C12.8459 5.33516 13.1192 5.53372 13.4358 5.60704L17.2169 6.48275C18.0981 6.68684 18.4453 7.7554 17.8524 8.43845L15.3081 11.3694C15.0951 11.6148 14.9907 11.9361 15.0188 12.2598L15.3544 16.1265C15.4326 17.0276 14.5236 17.688 13.6908 17.3352L10.117 15.8211C9.81783 15.6944 9.48002 15.6944 9.18082 15.8211L5.60709 17.3352C4.77425 17.688 3.86527 17.0276 3.94348 16.1265L4.27905 12.2598C4.30715 11.9361 4.20276 11.6148 3.98975 11.3694L1.44549 8.43845C0.852557 7.7554 1.19975 6.68684 2.08093 6.48275L5.86205 5.60704C6.17862 5.53372 6.45192 5.33516 6.61947 5.05674L8.62076 1.73129Z" stroke="#5B2EFF" stroke-width="2.3"/>
</svg>
