<svg width="20" height="19" viewBox="0 0 20 19" fill="none" xmlns="http://www.w3.org/2000/svg">
<path d="M8.62076 1.73123C9.08715 0.956249 10.2107 0.956248 10.6771 1.73123L12.6784 5.05668C12.8459 5.3351 13.1192 5.53366 13.4358 5.60698L17.2169 6.48269C18.0981 6.68678 18.4453 7.75534 17.8524 8.43839L15.3081 11.3693C15.0951 11.6147 14.9907 11.936 15.0188 12.2597L15.3544 16.1264C15.4326 17.0275 14.5236 17.6879 13.6908 17.3351L10.117 15.8211C9.81783 15.6943 9.48002 15.6943 9.18082 15.8211L5.60709 17.3351C4.77425 17.6879 3.86527 17.0275 3.94348 16.1264L4.27905 12.2597C4.30715 11.936 4.20276 11.6147 3.98975 11.3693L1.44549 8.43839C0.852557 7.75534 1.19975 6.68678 2.08093 6.48269L5.86205 5.60698C6.17862 5.53366 6.45192 5.3351 6.61947 5.05668L8.62076 1.73123Z" stroke="#888888" stroke-width="2.3"/>
</svg>
